<svg width="176" height="172" viewBox="0 0 176 172" fill="none" xmlns="http://www.w3.org/2000/svg">
<path d="M117.32 161.8C117 161.8 116.68 161.693 116.36 161.48C116.147 161.267 116.093 161.107 116.2 161C116.947 160.04 117.533 158.973 117.96 157.8C118.493 156.733 118.973 155.613 119.4 154.44C118.013 146.973 116.147 139.187 113.8 131.08C111.56 122.973 109.107 114.867 106.44 106.76C103.88 98.5467 101.427 90.76 99.08 83.4C98.3333 83.9333 97.5333 85.2133 96.68 87.24C95.9333 89.2667 95.4 90.76 95.08 91.72C93.6933 95.3467 92.04 99.6133 90.12 104.52C88.3067 109.32 86.2267 114.333 83.88 119.56C81.64 124.68 79.08 129.747 76.2 134.76C73.4267 139.667 70.3333 144.147 66.92 148.2C65.32 150.227 63.1333 152.04 60.36 153.64C57.5867 155.133 54.7067 156.307 51.72 157.16C48.7333 158.12 46.0133 158.6 43.56 158.6C40.2533 158.6 37.0533 157.693 33.96 155.88C30.9733 153.96 28.7333 151.08 27.24 147.24C26.8133 145.853 26.4933 144.413 26.28 142.92C26.0667 141.32 25.96 139.773 25.96 138.28C25.96 136.787 26.2267 136.04 26.76 136.04C27.2933 136.04 27.56 136.467 27.56 137.32C27.56 142.333 28.9467 146.493 31.72 149.8C34.4933 153.107 37.8 154.76 41.64 154.76C45.3733 154.76 49.1067 153.853 52.84 152.04C56.5733 150.227 59.9333 147.72 62.92 144.52C67.72 139.187 71.7733 133.533 75.08 127.56C78.3867 121.587 81.32 115.4 83.88 109C86.44 102.6 89.0533 96.2 91.72 89.8C93.32 85.7467 95.56 82.2267 98.44 79.24C101.32 76.2533 104.68 74.3867 108.52 73.64H99.72C95.9867 73.64 92.04 73.8 87.88 74.12C83.72 74.44 79.9333 75.1333 76.52 76.2C73.1067 77.2667 70.6533 78.8667 69.16 81C68.3067 82.28 67.88 83.8267 67.88 85.64C67.88 87.56 68.36 89.3733 69.32 91.08C70.28 92.7867 71.5067 94.0133 73 94.76C73.2133 94.9733 73.32 95.08 73.32 95.08C73.32 95.4 73.0533 95.72 72.52 96.04C72.0933 96.2533 71.6133 96.3067 71.08 96.2C70.2267 95.6667 69.16 94.8133 67.88 93.64C66.6 92.36 65.4267 91.0267 64.36 89.64C63.4 88.2533 62.76 87.08 62.44 86.12C62.0133 84.84 61.8 83.56 61.8 82.28C61.8 79.72 62.7067 77.64 64.52 76.04C66.44 74.44 68.8933 73.2133 71.88 72.36C74.8667 71.5067 78.0667 70.92 81.48 70.6C85 70.1733 88.36 69.96 91.56 69.96C94.76 69.8533 97.5333 69.8 99.88 69.8H119.24C119.773 69.6933 119.773 70.0667 119.24 70.92C118.813 71.7733 118.227 72.6267 117.48 73.48C116.84 74.2267 116.307 74.6 115.88 74.6C114.813 74.4933 113.16 74.7067 110.92 75.24C108.787 75.6667 107.293 76.2 106.44 76.84C106.76 80.8933 107.507 85.64 108.68 91.08C109.96 96.52 111.453 102.28 113.16 108.36C114.867 114.333 116.733 120.36 118.76 126.44C120.893 132.413 122.973 138.013 125 143.24C126.707 139.187 128.627 134.227 130.76 128.36C132.893 122.493 135.133 116.253 137.48 109.64C139.933 103.027 142.44 96.6267 145 90.44C147.667 84.1467 150.28 78.5467 152.84 73.64C155.507 68.7333 158.12 65.1067 160.68 62.76C161.96 61.5867 163.507 60.68 165.32 60.04C167.133 59.2933 168.84 58.92 170.44 58.92C171.933 58.92 173.213 59.2933 174.28 60.04C175.347 60.68 175.827 61.7467 175.72 63.24L175.56 69C175.56 69.1067 175.293 69.2133 174.76 69.32C174.227 69.4267 174.013 69.4267 174.12 69.32C174.227 67.9333 173.693 66.9733 172.52 66.44C171.347 65.8 170.387 65.48 169.64 65.48C167.4 65.3733 165 66.76 162.44 69.64C159.987 72.52 157.427 76.3067 154.76 81C152.093 85.6933 149.48 90.8667 146.92 96.52C144.36 102.067 141.907 107.667 139.56 113.32C137.32 118.867 135.293 123.987 133.48 128.68C131.667 133.373 130.173 137.053 129 139.72C127.933 141.96 127.4 144.147 127.4 146.28C127.4 146.6 127.4 146.92 127.4 147.24C127.4 147.56 127.453 147.88 127.56 148.2C127.56 148.627 127.613 149.107 127.72 149.64C127.933 150.173 128.093 150.707 128.2 151.24C128.2 151.347 128.2 151.453 128.2 151.56C128.307 151.667 128.36 151.827 128.36 152.04C128.36 152.893 127.933 153.64 127.08 154.28C126.013 155.027 124.84 155.667 123.56 156.2C122.813 156.52 121.747 157.32 120.36 158.6C119.08 159.987 118.28 160.947 117.96 161.48C117.747 161.693 117.533 161.8 117.32 161.8Z" fill="white"/>
<path d="M1.28 89.12C1.17333 89.2267 1.06667 89.28 0.96 89.28C0.64 89.28 0.48 88.8 0.48 87.84C0.48 87.2 0.64 86.56 0.96 85.92C1.38667 85.1733 2.13333 84.7467 3.2 84.64C6.18667 84.4267 9.01333 83.4133 11.68 81.6C14.3467 79.7867 16.6933 77.6533 18.72 75.2C20.7467 72.64 22.1867 70.24 23.04 68L37.76 31.2C39.7867 26.1867 42.08 21.3333 44.64 16.64C47.3067 11.9467 50.6667 8.10667 54.72 5.12C58.88 2.13333 64.1067 0.639999 70.4 0.639999C72.8533 0.639999 75.3067 0.959998 77.76 1.6C80.32 2.13333 82.4533 3.04 84.16 4.32C85.8667 5.6 86.72 7.41333 86.72 9.76C86.72 10.08 86.72 10.4 86.72 10.72C86.72 11.04 86.6667 11.36 86.56 11.68C86.24 13.3867 85.28 15.0933 83.68 16.8C82.1867 18.5067 81.0133 20.64 80.16 23.2C80.0533 23.9467 79.5733 24.32 78.72 24.32C77.9733 24.32 77.8133 23.84 78.24 22.88C79.0933 21.6 79.7333 20.1067 80.16 18.4C80.6933 16.5867 80.96 14.7733 80.96 12.96C80.96 10.1867 80.32 7.73333 79.04 5.59999C77.76 3.46666 75.5733 2.4 72.48 2.4C69.7067 2.4 66.88 3.2 64 4.79999C61.12 6.4 58.6133 9.17333 56.48 13.12L26.88 67.68C24.1067 72.8 21.5467 76.48 19.2 78.72C16.96 80.8533 15.0933 82.1867 13.6 82.72H52.16C57.28 82.72 62.0267 82.56 66.4 82.24C70.7733 81.92 73.44 81.12 74.4 79.84C75.4667 78.3467 76 76.7467 76 75.04C76 72.3733 74.56 70.4 71.68 69.12C71.36 68.9067 71.2 68.6933 71.2 68.48C71.2 68.2667 71.3067 68.0533 71.52 67.84C71.84 67.6267 72.2133 67.6267 72.64 67.84C73.6 68.2667 74.72 69.2267 76 70.72C77.3867 72.1067 78.6667 73.6533 79.84 75.36C81.0133 76.96 81.76 78.24 82.08 79.2C82.4 80.16 82.56 81.12 82.56 82.08C82.56 86.4533 78.7733 88.64 71.2 88.64C65.2267 88.64 58.8267 88.4267 52 88C45.1733 87.5733 38.4 87.0933 31.68 86.56C25.0667 86.0267 18.8267 85.6533 12.96 85.44C10.72 85.2267 8.48 85.5467 6.24 86.4C4.10667 87.1467 2.45333 88.0533 1.28 89.12Z" fill="white"/>
</svg>
